<?xml version="1.0" encoding="utf-8"?>
<!-- Generator: Adobe Illustrator 25.4.1, SVG Export Plug-In . SVG Version: 6.00 Build 0)  -->
<svg version="1.1" id="Layer_1" focusable="false" xmlns="http://www.w3.org/2000/svg" xmlns:xlink="http://www.w3.org/1999/xlink"
	 x="0px" y="0px" viewBox="0 0 512 512" style="enable-background:new 0 0 512 512;" xml:space="preserve">
<g>
	<path d="M256,8C119,8,8,119,8,256s111,248,248,248s248-111,248-248S393,8,256,8z M256,445c-104.4,0-189-84.6-189-189
		S151.6,67,256,67s189,84.6,189,189S360.4,445,256,445z"/>
	<g>
		<path d="M388,216h-92v-92c0-6.6-5.4-12-12-12h-56c-6.6,0-12,5.4-12,12v92h-92c-6.6,0-12,5.4-12,12v56c0,6.6,5.4,12,12,12h92v92
			c0,6.6,5.4,12,12,12h56c6.6,0,12-5.4,12-12v-92h92c6.6,0,12-5.4,12-12v-56C400,221.4,394.6,216,388,216z"/>
	</g>
</g>
</svg>
